<svg xmlns="http://www.w3.org/2000/svg" viewBox="-48 -1077 1532 1148">
  <path fill="#1F2A44" fill-opacity="0.92" d="M256 -439Q269 -457 272 -431Q273 -421 277.0 -392.0Q281 -363 287 -313Q293 -264 296.5 -234.5Q300 -205 301 -196Q309 -115 335 -99Q350 -88 379 -90Q397 -90 400 -69Q403 -47 396 -24Q389 -2 379 0Q323 4 296 -28Q268 -62 258 -147Q230 -94 200 -82Q178 -74 139 -81Q97 -89 80 -103Q61 -119 64 -138Q67 -160 83 -192Q100 -226 109 -235Q162 -286 235 -325Q232 -366 232 -386Q232 -406 241 -418ZM242 -264Q164 -242 130 -197Q126 -191 133 -187Q153 -177 180.0 -175.5Q207 -174 241 -181Q246 -182 252 -188Q251 -204 248.5 -223.0Q246 -242 242 -264ZM176 -618Q178 -621 184 -620Q204 -613 221.5 -603.0Q239 -593 255 -579Q259 -575 256 -570L208 -494Q206 -491 199 -496Q196 -499 182.0 -507.5Q168 -516 142 -531L104 -472Q101 -467 94 -473Q90 -476 73.0 -487.0Q56 -498 24 -517Q20 -520 23 -523L72 -596Q74 -599 80 -598Q97 -593 112.0 -584.5Q127 -576 140 -565Z M439 -211 467 -273Q475 -291 485 -274Q505 -237 509.0 -193.5Q513 -150 500 -98Q476 0 379 0Q369 0 358 -51Q353 -77 363 -86Q369 -91 379 -90Q438 -87 468 -122Q470 -124 468 -129Q462 -157 441 -187Q433 -198 439 -211ZM448 -498Q450 -501 456 -500Q496 -486 527 -458Q531 -454 528 -450L481 -374Q478 -369 471 -375Q467 -378 450.0 -389.0Q433 -400 401 -419Q396 -422 399 -425Z M646 -720Q650 -727 653 -726Q658 -726 661 -705Q679 -550 685 -440Q690 -336 693.5 -273.0Q697 -210 698 -188Q705 -96 798 -90Q825 -88 819 -54Q810 0 798 0Q667 0 658 -122Q654 -173 651.5 -224.5Q649 -276 647 -328Q644 -432 635.0 -496.5Q626 -561 611 -643Q608 -658 614 -668Z M1031 -318Q1099 -316 1124 -152Q1126 -141 1121 -135L1066 -66Q1059 -56 1047 -59Q970 -81 911 -131Q864 0 798 0Q791 0 783 -21Q767 -71 782 -85Q788 -90 798 -90Q844 -91 886 -146Q900 -165 951 -256Q986 -318 1031 -318ZM959 -220Q994 -186 1049 -174Q1050 -217 1020 -231Q990 -245 959 -220Z M1288 -670Q1309 -719 1315 -672L1338 -427Q1376 -96 1329 -7Q1322 5 1318 -1Q1314 -6 1314 -18Q1316 -102 1302 -207Q1302 -211 1281 -397L1259 -578Q1257 -598 1263 -612ZM1379 -812Q1352 -807 1332.5 -803.0Q1313 -799 1302 -795Q1291 -791 1270.0 -782.5Q1249 -774 1218 -760Q1205 -754 1199 -764Q1187 -782 1238 -813Q1201 -831 1196 -855Q1188 -897 1230 -954Q1272 -1011 1319 -1007Q1349 -1004 1346 -973Q1343 -942 1328 -921Q1314 -901 1304 -916Q1293 -934 1274 -935Q1254 -937 1243 -923Q1231 -908 1244 -897Q1277 -866 1342 -864Q1347 -864 1354.5 -865.5Q1362 -867 1372 -869Q1383 -871 1390.0 -872.5Q1397 -874 1401 -874Q1410 -874 1413 -867Q1416 -861 1414 -856Q1394 -815 1379 -812Z"/>
</svg>
