<svg xmlns="http://www.w3.org/2000/svg" viewBox="-50 -875 1650 1158">
  <path fill="#2B2B2B" fill-opacity="0.92" d="M104 -562Q80 -562 63.0 -579.0Q46 -596 46 -620Q46 -644 63.0 -661.0Q80 -678 104 -678Q128 -678 145.0 -661.0Q162 -644 162 -620Q162 -596 145.0 -579.0Q128 -562 104 -562ZM104 -392Q80 -392 63.0 -409.0Q46 -426 46 -450Q46 -474 63.0 -491.0Q80 -508 104 -508Q128 -508 145.0 -491.0Q162 -474 162 -450Q162 -426 145.0 -409.0Q128 -392 104 -392Z M173 0 238 -100H435V0ZM280 0V-200H324V0ZM224 -320V-447L324 -495V-374Q315 -357 298.5 -345.5Q282 -334 262.5 -327.5Q243 -321 224 -320ZM224 -467V-778L324 -800V-515ZM324 -150 175 -300Q188 -300 209.0 -300.0Q230 -300 252.5 -303.5Q275 -307 294.5 -317.0Q314 -327 324 -346ZM175 0Q134 0 100.0 -20.0Q66 -40 45.5 -74.5Q25 -109 25 -150Q25 -192 45.5 -226.0Q66 -260 100.0 -280.0Q134 -300 175 -300Q216 -300 250.0 -280.0Q284 -260 304.0 -226.0Q324 -192 324 -150Q324 -109 304.0 -74.5Q284 -40 250.0 -20.0Q216 0 175 0ZM175 -100Q196 -100 210.5 -114.5Q225 -129 225 -150Q225 -171 210.5 -185.5Q196 -200 175 -200Q154 -200 139.5 -185.5Q125 -171 125 -150Q125 -129 139.5 -114.5Q154 -100 175 -100Z M498 208Q474 208 457.0 191.0Q440 174 440 150Q440 126 457.0 109.0Q474 92 498 92Q522 92 539.0 109.0Q556 126 556 150Q556 174 539.0 191.0Q522 208 498 208Z M515 0V-100H735V0ZM395 0V-100H515V-278L615 -300V-23Q615 -11 605.0 -6.0Q595 -1 585.0 -0.5Q575 0 575 0Z M884 -425Q860 -425 843.0 -442.0Q826 -459 826 -483Q826 -507 843.0 -524.0Q860 -541 884 -541Q908 -541 925.0 -524.0Q942 -507 942 -483Q942 -459 925.0 -442.0Q908 -425 884 -425ZM711 -425Q687 -425 670.0 -442.0Q653 -459 653 -483Q653 -507 670.0 -524.0Q687 -541 711 -541Q735 -541 752.0 -524.0Q769 -507 769 -483Q769 -459 752.0 -442.0Q735 -425 711 -425Z M815 0V-100H1035V0ZM695 0V-100H815V-278L915 -300V-23Q915 -11 905.0 -6.0Q895 -1 885.0 -0.5Q875 0 875 0Z M995 0V-100H1111Q1097 -108 1091.0 -124.5Q1085 -141 1086.0 -157.5Q1087 -174 1093 -183Q1101 -196 1123.5 -216.0Q1146 -236 1193.0 -260.5Q1240 -285 1321 -311L1328 -302Q1268 -274 1236.5 -249.5Q1205 -225 1194 -200Q1189 -187 1191.0 -171.0Q1193 -155 1202 -146Q1216 -131 1235.5 -115.5Q1255 -100 1285 -100H1525L1465 0Z"/>
</svg>
