<svg xmlns="http://www.w3.org/2000/svg" viewBox="-168 -922 1966 1450">
  <path fill="#1F2A44" fill-opacity="0.92" d="M4 -251Q-10 -266 -24.5 -278.5Q-39 -291 -52.5 -303.0Q-66 -315 -79 -325V-334Q-72 -344 -60.0 -358.5Q-48 -373 -34.5 -388.0Q-21 -403 -9.5 -414.5Q2 -426 8 -430H17Q41 -415 58.5 -401.5Q76 -388 85 -374Q96 -388 110.0 -403.5Q124 -419 137.0 -431.5Q150 -444 156 -448H164Q204 -423 223.5 -403.5Q243 -384 243 -364Q243 -345 223.0 -321.5Q203 -298 163 -269H154Q137 -286 121.0 -300.5Q105 -315 91 -327Q75 -295 13 -251Z M20 91 0 82Q20 31 44.0 -9.5Q68 -50 95 -78Q121 -106 150.5 -120.5Q180 -135 214 -135Q229 -135 247.0 -132.5Q265 -130 283.0 -127.5Q301 -125 314 -125Q331 -125 339.0 -117.0Q347 -109 347 -93Q347 -60 331.0 -31.0Q315 -2 288.5 15.5Q262 33 230 33Q208 33 182.5 24.5Q157 16 134 16Q97 16 72.5 35.0Q48 54 20 91Z M417 -654Q403 -668 389.0 -681.0Q375 -694 361.5 -706.0Q348 -718 334 -728V-737Q340 -747 352.0 -761.5Q364 -776 377.5 -791.0Q391 -806 403.0 -817.5Q415 -829 421 -833H430Q476 -804 492.0 -784.5Q508 -765 508 -748Q508 -731 487.5 -707.0Q467 -683 425 -654Z M251 36Q223 36 210 29Q197 22 197 2Q197 -32 213.5 -60.5Q230 -89 257.0 -106.5Q284 -124 314 -124Q368 -124 399.5 -133.0Q431 -142 449 -167Q464 -187 464 -209Q464 -218 460 -229Q450 -222 438.0 -217.5Q426 -213 413.5 -210.5Q401 -208 386 -208Q365 -208 347.0 -217.0Q329 -226 317.5 -242.0Q306 -258 306 -278Q306 -295 310.5 -311.5Q315 -328 324 -346L354 -406Q365 -428 380.5 -439.0Q396 -450 417 -450Q443 -450 462.5 -437.5Q482 -425 495.0 -403.0Q508 -381 514.5 -352.0Q521 -323 521 -291Q521 -231 508.5 -182.0Q496 -133 473.5 -95.5Q451 -58 422 -31Q385 3 340.0 19.5Q295 36 251 36Z M401 438 379 411Q446 355 502.5 290.5Q559 226 614.5 145.5Q670 65 734 -37Q760 -78 783.5 -111.0Q807 -144 827 -167Q865 -211 910.5 -248.0Q956 -285 1000.0 -310.5Q1044 -336 1076 -344Q1083 -346 1089.5 -347.0Q1096 -348 1101 -348Q1117 -348 1125.0 -336.5Q1133 -325 1133 -301Q1133 -282 1117.0 -267.5Q1101 -253 1089 -248Q1046 -229 1007.0 -207.0Q968 -185 933 -159Q819 -76 741 46Q672 155 614.5 227.0Q557 299 505.5 348.5Q454 398 401 438Z M1057 -239Q1038 -239 1028.0 -251.0Q1018 -263 1018 -286Q1018 -307 1031.5 -320.5Q1045 -334 1067.0 -342.5Q1089 -351 1116 -357Q1107 -374 1090.0 -391.0Q1073 -408 1044 -408Q1040 -408 1036.5 -408.0Q1033 -408 1029 -407L1024 -417Q1045 -464 1088.0 -487.0Q1131 -510 1179 -510Q1207 -510 1232.5 -502.0Q1258 -494 1274.5 -477.5Q1291 -461 1291 -435Q1291 -416 1280.5 -395.0Q1270 -374 1236 -342Q1241 -341 1247.5 -339.5Q1254 -338 1261 -338Q1273 -338 1279.0 -329.0Q1285 -320 1285 -308Q1285 -287 1279.0 -275.0Q1273 -263 1261.5 -258.0Q1250 -253 1232 -253Q1204 -253 1186.5 -263.0Q1169 -273 1156 -286Q1146 -279 1127.0 -268.0Q1108 -257 1089.0 -248.0Q1070 -239 1057 -239Z M1231 -253Q1224 -253 1215.5 -260.5Q1207 -268 1207 -284Q1207 -311 1224.0 -324.5Q1241 -338 1257 -338Q1316 -338 1367.0 -368.0Q1418 -398 1461 -458Q1489 -496 1506.5 -518.0Q1524 -540 1538.0 -550.5Q1552 -561 1569 -564Q1576 -577 1588.0 -593.5Q1600 -610 1612.0 -624.5Q1624 -639 1632 -646H1644Q1654 -622 1664.0 -603.5Q1674 -585 1684 -571Q1698 -554 1703.0 -544.0Q1708 -534 1708 -522Q1708 -506 1699.0 -485.5Q1690 -465 1675.0 -446.0Q1660 -427 1643.0 -414.5Q1626 -402 1610 -402Q1596 -402 1584 -407Q1560 -418 1540.5 -423.5Q1521 -429 1506 -429Q1500 -429 1488.0 -421.0Q1476 -413 1459.5 -397.0Q1443 -381 1420 -357Q1387 -322 1357.5 -299.0Q1328 -276 1297.5 -264.5Q1267 -253 1231 -253Z"/>
</svg>
