<svg xmlns="http://www.w3.org/2000/svg" viewBox="-104 -929 2845 1059">
  <path fill="#1F2A44" fill-opacity="0.92" d="M496 -332Q472 -332 455.0 -349.0Q438 -366 438 -390Q438 -414 455.0 -431.0Q472 -448 496 -448Q520 -448 537.0 -431.0Q554 -414 554 -390Q554 -366 537.0 -349.0Q520 -332 496 -332ZM323 -332Q299 -332 282.0 -349.0Q265 -366 265 -390Q265 -414 282.0 -431.0Q299 -448 323 -448Q347 -448 364.0 -431.0Q381 -414 381 -390Q381 -366 364.0 -349.0Q347 -332 323 -332Z M25 0 85 -100H725V0ZM605 0V-100H725V-278L825 -300V-23Q825 -11 815.0 -6.0Q805 -1 795.0 -0.5Q785 0 785 0Z M915 0Q915 0 905.0 -0.5Q895 -1 885.0 -6.0Q875 -11 875 -23V-778L975 -800V-100H1095V0Z M1055 0V-100H1255L1320 0ZM1319 0Q1278 0 1244.0 -20.0Q1210 -40 1189.5 -74.5Q1169 -109 1169 -150Q1169 -192 1189.5 -226.0Q1210 -260 1244.0 -280.0Q1278 -300 1319 -300Q1360 -300 1394.0 -280.0Q1428 -260 1448.0 -226.0Q1468 -192 1468 -150Q1468 -109 1448.0 -74.5Q1428 -40 1394.0 -20.0Q1360 0 1319 0ZM1319 -100Q1340 -100 1354.5 -114.5Q1369 -129 1369 -150Q1369 -171 1354.5 -185.5Q1340 -200 1319 -200Q1298 -200 1283.5 -185.5Q1269 -171 1269 -150Q1269 -129 1283.5 -114.5Q1298 -100 1319 -100Z M1558 0Q1558 0 1548.0 -0.5Q1538 -1 1528.0 -6.0Q1518 -11 1518 -23V-778L1618 -800V-100H1738V0Z M2054 -542Q2030 -542 2013.0 -559.0Q1996 -576 1996 -600Q1996 -624 2013.0 -641.0Q2030 -658 2054 -658Q2078 -658 2095.0 -641.0Q2112 -624 2112 -600Q2112 -576 2095.0 -559.0Q2078 -542 2054 -542ZM1881 -542Q1857 -542 1840.0 -559.0Q1823 -576 1823 -600Q1823 -624 1840.0 -641.0Q1857 -658 1881 -658Q1905 -658 1922.0 -641.0Q1939 -624 1939 -600Q1939 -576 1922.0 -559.0Q1905 -542 1881 -542Z M2058 0V-100H2238V0ZM1698 0V-100H2018V-228L2118 -300V-23Q2118 -11 2108.0 -6.0Q2098 -1 2088.0 -0.5Q2078 0 2078 0ZM1969 -150Q1928 -150 1894.0 -170.0Q1860 -190 1839.5 -224.5Q1819 -259 1819 -300Q1819 -342 1839.5 -376.0Q1860 -410 1894.0 -430.0Q1928 -450 1969 -450Q2010 -450 2044.0 -430.0Q2078 -410 2098.0 -376.0Q2118 -342 2118 -300Q2118 -259 2098.0 -224.5Q2078 -190 2044.0 -170.0Q2010 -150 1969 -150ZM1969 -250Q1990 -250 2004.5 -264.5Q2019 -279 2019 -300Q2019 -321 2004.5 -335.5Q1990 -350 1969 -350Q1948 -350 1933.5 -335.5Q1919 -321 1919 -300Q1919 -279 1933.5 -264.5Q1948 -250 1969 -250Z M2198 0V-100H2398L2463 0ZM2462 0Q2421 0 2387.0 -20.0Q2353 -40 2332.5 -74.5Q2312 -109 2312 -150Q2312 -192 2332.5 -226.0Q2353 -260 2387.0 -280.0Q2421 -300 2462 -300Q2503 -300 2537.0 -280.0Q2571 -260 2591.0 -226.0Q2611 -192 2611 -150Q2611 -109 2591.0 -74.5Q2571 -40 2537.0 -20.0Q2503 0 2462 0ZM2462 -100Q2483 -100 2497.5 -114.5Q2512 -129 2512 -150Q2512 -171 2497.5 -185.5Q2483 -200 2462 -200Q2441 -200 2426.5 -185.5Q2412 -171 2412 -150Q2412 -129 2426.5 -114.5Q2441 -100 2462 -100Z"/>
</svg>
