<svg xmlns="http://www.w3.org/2000/svg" viewBox="-71 -858 1568 929">
  <path fill="#2B2B2B" fill-opacity="0.92" d="M254 -591 314 -710Q266 -701 218.0 -692.0Q170 -683 122 -674L62 -555Q110 -564 158.0 -573.0Q206 -582 254 -591Z M78 -135Q92 -135 104 -139Q152 -153 184 -189L197 0L271 -138L253 -401Q253 -466 216 -481Q212 -483 207.0 -484.0Q202 -485 197 -485Q168 -485 130 -450Q117 -438 89 -398Q64 -363 39.5 -317.0Q15 -271 4 -225Q3 -218 1.5 -211.5Q0 -205 0 -199Q0 -179 13.0 -164.5Q26 -150 44.0 -142.5Q62 -135 78 -135ZM171 -288Q171 -283 170.5 -278.0Q170 -273 169 -268Q161 -266 153.5 -264.5Q146 -263 138 -263Q114 -263 95.5 -272.5Q77 -282 69 -297Q64 -305 64 -311Q64 -318 70 -325Q76 -333 83.5 -340.0Q91 -347 100 -354Q111 -364 126 -364Q155 -364 163.0 -341.0Q171 -318 171 -288Z M389 -165Q307 -140 215 -129L193 0Q260 -16 318.5 -31.0Q377 -46 432 -74Q494 -105 523 -140Q542 -163 552.0 -178.0Q562 -193 568.5 -213.0Q575 -233 582 -270Q590 -308 543 -309Q495 -311 478 -305Q452 -305 427 -250Q414 -222 405.0 -200.5Q396 -179 389 -165Z M937 -278 866 -344Q846 -319 825.0 -293.0Q804 -267 784 -241L855 -175Q876 -201 896.5 -226.5Q917 -252 937 -278Z M675 -506Q534 -461 503 -417Q476 -377 462.0 -340.5Q448 -304 432 -258L453 -256Q467 -291 502.0 -315.5Q537 -340 578 -353Q616 -365 662.0 -385.5Q708 -406 739 -419Q816 -452 874.0 -512.5Q932 -573 960 -655Q966 -673 969.5 -691.5Q973 -710 973 -727Q973 -762 945 -774Q897 -794 829 -783Q762 -773 729 -750Q687 -720 666 -648Q645 -576 675 -506ZM769 -543Q753 -563 741.0 -585.5Q729 -608 719 -633Q742 -652 815 -659Q889 -667 903 -623Q878 -599 841.0 -578.5Q804 -558 769 -543Z M1130 -139Q1141 -145 1142.0 -162.0Q1143 -179 1128 -181Q1119 -182 1111 -173V-174Q1092 -153 1065 -145Q993 -126 915.0 -113.0Q837 -100 769 -76Q755 -70 763 -63Q775 -53 841 -33Q874 -23 894.5 -17.0Q915 -11 923 -9Q987 4 1023.0 -10.5Q1059 -25 1082 -69Q1092 -89 1103.0 -107.5Q1114 -126 1130 -139Z M1365 -490 1425 -609Q1377 -600 1329.0 -591.0Q1281 -582 1233 -573L1173 -454Q1221 -463 1269.0 -472.0Q1317 -481 1365 -490Z M1379 -334Q1366 -322 1346.0 -315.0Q1326 -308 1306 -305Q1285 -301 1264.5 -297.5Q1244 -294 1225 -291Q1179 -284 1149.5 -260.0Q1120 -236 1104 -196Q1099 -188 1094.5 -179.0Q1090 -170 1085 -160V-159Q1062 -131 1075 -112Q1089 -93 1105 -118Q1120 -133 1138.0 -142.0Q1156 -151 1173 -154Q1191 -157 1213.5 -162.0Q1236 -167 1262 -174Q1319 -188 1346.5 -228.5Q1374 -269 1379 -334Z"/>
</svg>
